<svg xmlns="http://www.w3.org/2000/svg" viewBox="0 0 506.9 108.66"><defs><style>.cls-1{fill-rule:evenodd;}</style></defs><g id="Layer_2" data-name="Layer 2"><g id="Layer_1-2" data-name="Layer 1"><polygon class="cls-1" points="39.01 74.66 2.27 74.66 26.38 21.65 21.01 18.78 21.01 17.08 65.19 17.08 39.01 74.66 39.01 74.66"/><polygon class="cls-1" points="54.47 74.66 78.58 21.65 73.21 18.78 73.21 17.08 117.39 17.08 93.28 70.09 486.77 70.09 484.7 74.66 54.47 74.66 54.47 74.66"/><path class="cls-1" d="M220.77,17.08H184l-18.64,41H149.68l18.64-41H124.14v1.7l5.37,2.87L115,53.64c-2.25,5,0,9,4.9,9H191c4.95,0,10.89-4,13.14-9l16.63-36.57Z"/><polygon class="cls-1" points="67.65 11.67 30.92 11.67 36.23 0 72.96 0 67.65 11.67 67.65 11.67"/><path class="cls-1" d="M269.43,45.7H225.66c-5.64,0-6.34-5-4.42-9.17l4.28-9.41c3.7-8.14,10.57-10,18.86-10h74.8l-2.07,4.57H264.74L259,34.34h43.78c5.64,0,6.34,5,4.42,9.18L303,52.6c-3.7,8.14-10.57,10-18.86,10h-74.8l2.07-4.56h52.37l5.62-12.37Z"/><path class="cls-1" d="M363.12,45.7H319.34c-5.64,0-6.33-5-4.41-9.17l4.28-9.41c3.7-8.14,10.57-10,18.86-10h74.8l-2.08,4.57H358.43l-5.78,12.69h43.78c5.64,0,6.33,5,4.41,9.18l-4.13,9.08c-3.7,8.14-10.57,10-18.86,10h-74.8l2.08-4.56H357.5l5.62-12.37Z"/><path class="cls-1" d="M431.79,17.08h67.88c6.14,0,8.93,5,6.15,11.14L495.26,51.43c-2.78,6.12-10.05,11.2-16.18,11.2H411.3c-6.13,0-9.06-5.11-6.27-11.24l10.54-23.17c2.78-6.13,10.08-11.14,16.22-11.14Zm23.5,4.57h16.79L455.51,58.07H438.72l16.57-36.42Z"/><polygon points="3.87 92.48 0 92.48 0 108.25 13.07 108.25 13.07 105.39 3.87 105.39 3.87 92.48 3.87 92.48"/><polygon points="31.43 92.48 17.82 92.48 17.82 108.25 31.87 108.25 31.87 105.46 21.61 105.46 21.61 101.38 30.64 101.38 30.64 98.59 21.61 98.59 21.61 95.27 31.43 95.27 31.43 92.48 31.43 92.48"/><path d="M41,105h6.83L49,108.25h4.21L46.7,92.48H42.24l-6.6,15.77h4.08L41,105Zm3.4-9h.05l2.3,6.23H42L44.41,96Z"/><path d="M57.77,108.25h8a9.43,9.43,0,0,0,2.69-.38,6.71,6.71,0,0,0,2-1,6.37,6.37,0,0,0,1.42-1.47,7.72,7.72,0,0,0,.92-1.75,10.65,10.65,0,0,0,.49-1.86,11.23,11.23,0,0,0,.14-1.79,10,10,0,0,0-.12-1.59,8.68,8.68,0,0,0-.44-1.68,6.88,6.88,0,0,0-.86-1.6,5.91,5.91,0,0,0-1.38-1.35,6.5,6.5,0,0,0-2-.94,10.06,10.06,0,0,0-2.73-.35H57.77v15.77Zm3.79-13h3.71a5.81,5.81,0,0,1,1.08.07,4,4,0,0,1,1.13.35,3,3,0,0,1,1,.82,4.05,4.05,0,0,1,.74,1.47,8.34,8.34,0,0,1,.29,2.31,8.85,8.85,0,0,1-.14,1.55,6.68,6.68,0,0,1-.43,1.44,4.65,4.65,0,0,1-.79,1.19,3.48,3.48,0,0,1-1.2.81,4.19,4.19,0,0,1-1.65.3H61.56V95.21Z"/><polygon points="92.07 92.48 78.45 92.48 78.45 108.25 92.51 108.25 92.51 105.46 82.24 105.46 82.24 101.38 91.27 101.38 91.27 98.59 82.24 98.59 82.24 95.27 92.07 95.27 92.07 92.48 92.07 92.48"/><path d="M97.72,108.25h3.79v-6.17h4a6.9,6.9,0,0,1,1.68.16,1.68,1.68,0,0,1,.9.52,1.86,1.86,0,0,1,.36.93,8.05,8.05,0,0,1,.07,1.37c0,.54,0,1,0,1.39a6.43,6.43,0,0,0,.15,1,7.73,7.73,0,0,0,.21.8h4.28v-.42a1,1,0,0,1-.47-.28,1.14,1.14,0,0,1-.25-.53,7.72,7.72,0,0,1-.09-.9c0-.38,0-.86,0-1.43a9,9,0,0,0-.1-1.49,3.55,3.55,0,0,0-.29-1,2.28,2.28,0,0,0-.47-.68,2.57,2.57,0,0,0-.66-.45,6.46,6.46,0,0,0-.83-.36,4,4,0,0,0,1.56-.82,3.64,3.64,0,0,0,1-1.3,4.07,4.07,0,0,0,.34-1.63,4.16,4.16,0,0,0-.09-.8,4.23,4.23,0,0,0-2-2.8,5.58,5.58,0,0,0-1.56-.62,9,9,0,0,0-2.14-.24H97.72v15.77Zm3.79-8.83V95.21h4.82a4.11,4.11,0,0,1,1.38.2,2.1,2.1,0,0,1,.83.51,1.81,1.81,0,0,1,.39.68,2,2,0,0,1,.11.67,2.15,2.15,0,0,1-.33,1.25,1.82,1.82,0,0,1-1,.69,5.62,5.62,0,0,1-1.67.21Z"/><path d="M129.13,92.48h-3.87v15.77h3.87V92.48Zm17,11h0l-7.35-11h-4.07v15.77h3.61V97h0l7.55,11.24h3.87V92.48H146.1v11Z"/><polygon points="173.62 101.18 173.62 108.25 177.48 108.25 177.48 92.48 173.62 92.48 173.62 98.45 166.4 98.45 166.4 92.48 162.53 92.48 162.53 108.25 166.4 108.25 166.4 101.18 173.62 101.18 173.62 101.18"/><polygon points="192.03 102.34 198.22 92.48 193.83 92.48 190.17 99.33 186.33 92.48 181.77 92.48 188.16 102.3 188.16 108.25 192.03 108.25 192.03 102.34 192.03 102.34"/><path d="M206.47,102.56h4.44a7.68,7.68,0,0,0,2.16-.27,5.37,5.37,0,0,0,1.58-.72,4.31,4.31,0,0,0,1.08-1,4.92,4.92,0,0,0,.66-1.11,5,5,0,0,0,.33-1.07,4.27,4.27,0,0,0,.09-.87,5,5,0,0,0-.69-2.68,4.46,4.46,0,0,0-2-1.74,7.27,7.27,0,0,0-3.09-.63h-8.45v15.77h3.86v-5.69Zm0-2.72V95.21h3.07a6.62,6.62,0,0,1,2,.22,2.07,2.07,0,0,1,1.11.7,2.1,2.1,0,0,1,.35,1.25c0,.14,0,.32,0,.53a2.31,2.31,0,0,1-.16.64,2,2,0,0,1-.44.63,2.28,2.28,0,0,1-.85.47,5,5,0,0,1-1.41.19Z"/><polygon points="235.49 92.48 221.87 92.48 221.87 108.25 235.92 108.25 235.92 105.46 225.66 105.46 225.66 101.38 234.69 101.38 234.69 98.59 225.66 98.59 225.66 95.27 235.49 95.27 235.49 92.48 235.49 92.48"/><path d="M241.14,108.25h3.79v-6.17h4a6.8,6.8,0,0,1,1.68.16,1.72,1.72,0,0,1,.91.52,1.86,1.86,0,0,1,.36.93,9.24,9.24,0,0,1,.07,1.37c0,.54,0,1,.05,1.39a8,8,0,0,0,.14,1,7.68,7.68,0,0,0,.22.8h4.28v-.42a1,1,0,0,1-.47-.28,1.05,1.05,0,0,1-.25-.53,4.92,4.92,0,0,1-.09-.9c0-.38,0-.86,0-1.43a10.27,10.27,0,0,0-.1-1.49,3.9,3.9,0,0,0-.29-1,2.3,2.3,0,0,0-.48-.68,2.35,2.35,0,0,0-.65-.45,6.46,6.46,0,0,0-.83-.36,4,4,0,0,0,1.56-.82,3.76,3.76,0,0,0,1-1.3,4.06,4.06,0,0,0,.33-1.63,3,3,0,0,0-.09-.8,4.33,4.33,0,0,0-.32-1,4.2,4.2,0,0,0-1.71-1.84,5.58,5.58,0,0,0-1.56-.62,9,9,0,0,0-2.14-.24h-9.36v15.77Zm3.79-8.83V95.21h4.82a4.11,4.11,0,0,1,1.38.2,2,2,0,0,1,.82.51,1.72,1.72,0,0,1,.4.68,2,2,0,0,1,.11.67,2.15,2.15,0,0,1-.33,1.25,1.82,1.82,0,0,1-1,.69,5.66,5.66,0,0,1-1.67.21Z"/><path d="M277.5,97.64a5,5,0,0,0-.38-1.47,6.13,6.13,0,0,0-.93-1.49,6.29,6.29,0,0,0-1.54-1.32,8.31,8.31,0,0,0-2.21-.94,11.29,11.29,0,0,0-2.94-.35,10.35,10.35,0,0,0-3.34.52,7.67,7.67,0,0,0-2.7,1.57,7.19,7.19,0,0,0-1.81,2.6,10.58,10.58,0,0,0,0,7.22,7.21,7.21,0,0,0,1.76,2.59,7.52,7.52,0,0,0,2.67,1.57,11.54,11.54,0,0,0,6.51.1,7.6,7.6,0,0,0,2.36-1.2,6.53,6.53,0,0,0,1.64-1.84,8,8,0,0,0,.94-2.35h-3.87a3.86,3.86,0,0,1-.8,1.62,3.43,3.43,0,0,1-1.39,1,5,5,0,0,1-1.91.34,4.79,4.79,0,0,1-2.1-.44,3.92,3.92,0,0,1-1.42-1.19,5,5,0,0,1-.81-1.71,7.61,7.61,0,0,1-.26-2,7.93,7.93,0,0,1,.3-2.28,4.76,4.76,0,0,1,.78-1.58,4,4,0,0,1,1.09-1,4.17,4.17,0,0,1,1.23-.51,4.62,4.62,0,0,1,1.19-.15,6.21,6.21,0,0,1,1.62.19,3.82,3.82,0,0,1,1.11.49,2.73,2.73,0,0,1,.71.68,3.36,3.36,0,0,1,.42.72,6.64,6.64,0,0,1,.24.64Z"/><path d="M285.39,105h6.84l1.18,3.25h4.2l-6.52-15.77h-4.46L280,108.25h4.07l1.29-3.25Zm3.41-9h.05l2.29,6.23h-4.72L288.8,96Z"/><path d="M302.16,108.25H306v-6.17h4a6.8,6.8,0,0,1,1.68.16,1.72,1.72,0,0,1,.91.52,1.86,1.86,0,0,1,.36.93,9.24,9.24,0,0,1,.07,1.37c0,.54,0,1,.05,1.39a8,8,0,0,0,.14,1,7.68,7.68,0,0,0,.22.8h4.28v-.42a1,1,0,0,1-.47-.28,1.05,1.05,0,0,1-.25-.53,4.92,4.92,0,0,1-.09-.9c0-.38,0-.86,0-1.43a10.27,10.27,0,0,0-.1-1.49,3.9,3.9,0,0,0-.29-1,2.3,2.3,0,0,0-.48-.68,2.51,2.51,0,0,0-.65-.45,6.46,6.46,0,0,0-.83-.36,4,4,0,0,0,1.56-.82,3.76,3.76,0,0,0,1-1.3,4.06,4.06,0,0,0,.33-1.63,3,3,0,0,0-.09-.8,4.33,4.33,0,0,0-.32-1,4.2,4.2,0,0,0-1.71-1.84,5.58,5.58,0,0,0-1.56-.62,9,9,0,0,0-2.14-.24h-9.36v15.77ZM306,99.42V95.21h4.82a4.11,4.11,0,0,1,1.38.2,2.06,2.06,0,0,1,.82.51,1.72,1.72,0,0,1,.4.68,2,2,0,0,1,.11.67,2.15,2.15,0,0,1-.33,1.25,1.82,1.82,0,0,1-1,.69,5.69,5.69,0,0,1-1.68.21Z"/><polygon points="333.57 92.48 329.7 92.48 329.7 108.25 333.57 108.25 333.57 92.48 333.57 92.48"/><polygon points="350.54 103.46 350.49 103.46 343.14 92.48 339.06 92.48 339.06 108.25 342.67 108.25 342.67 97.01 342.73 97.01 350.28 108.25 354.15 108.25 354.15 92.48 350.54 92.48 350.54 103.46 350.54 103.46"/><polygon points="366.63 104.43 366.58 104.43 362.61 92.48 358.46 92.48 364.7 108.25 368.38 108.25 374.68 92.48 370.65 92.48 366.63 104.43 366.63 104.43"/><polygon points="392.81 92.48 379.19 92.48 379.19 108.25 393.25 108.25 393.25 105.46 382.98 105.46 382.98 101.38 392.01 101.38 392.01 98.59 382.98 98.59 382.98 95.27 392.81 95.27 392.81 92.48 392.81 92.48"/><polygon points="409.75 103.46 409.7 103.46 402.35 92.48 398.28 92.48 398.28 108.25 401.89 108.25 401.89 97.01 401.94 97.01 409.49 108.25 413.36 108.25 413.36 92.48 409.75 92.48 409.75 103.46 409.75 103.46"/><polygon points="427.01 95.27 432.6 95.27 432.6 92.48 417.54 92.48 417.54 95.27 423.14 95.27 423.14 108.25 427.01 108.25 427.01 95.27 427.01 95.27"/><path d="M435.11,100.37a10.08,10.08,0,0,0,.36,2.78,7.27,7.27,0,0,0,1,2.1,6.88,6.88,0,0,0,1.4,1.49,8.35,8.35,0,0,0,1.63,1,10.05,10.05,0,0,0,1.7.58,11.11,11.11,0,0,0,1.57.28,10,10,0,0,0,1.26.07,10.17,10.17,0,0,0,1.27-.07,11.11,11.11,0,0,0,1.57-.28,9.67,9.67,0,0,0,1.69-.58,8.42,8.42,0,0,0,1.64-1,6.85,6.85,0,0,0,1.39-1.49,7,7,0,0,0,1-2.1,10.67,10.67,0,0,0,0-5.57,7,7,0,0,0-1-2.1A6.85,6.85,0,0,0,450.17,94a8.42,8.42,0,0,0-1.64-1,9.67,9.67,0,0,0-1.69-.58,11.11,11.11,0,0,0-1.57-.28,10.17,10.17,0,0,0-1.27-.07,10,10,0,0,0-1.26.07,11.11,11.11,0,0,0-1.57.28,10.05,10.05,0,0,0-1.7.58,8.35,8.35,0,0,0-1.63,1,6.88,6.88,0,0,0-1.4,1.49,7.27,7.27,0,0,0-1,2.1,10.1,10.1,0,0,0-.36,2.79Zm3.87,0a7.22,7.22,0,0,1,.32-2.27,4.73,4.73,0,0,1,.84-1.58,4.47,4.47,0,0,1,1.19-1,5.45,5.45,0,0,1,1.35-.52,6.22,6.22,0,0,1,1.32-.15,6.31,6.31,0,0,1,1.33.15,5.45,5.45,0,0,1,1.35.52,4.43,4.43,0,0,1,1.18,1,4.57,4.57,0,0,1,.85,1.58,8.18,8.18,0,0,1,0,4.53,4.67,4.67,0,0,1-.85,1.58,4.43,4.43,0,0,1-1.18,1,5.45,5.45,0,0,1-1.35.52,6.31,6.31,0,0,1-1.33.15,6.22,6.22,0,0,1-1.32-.15,5.45,5.45,0,0,1-1.35-.52,4.47,4.47,0,0,1-1.19-1,4.83,4.83,0,0,1-.84-1.58,7.2,7.2,0,0,1-.32-2.26Z"/><path d="M458.06,108.25h3.79v-6.17h4a6.85,6.85,0,0,1,1.68.16,1.68,1.68,0,0,1,.9.52,1.86,1.86,0,0,1,.36.93,8.05,8.05,0,0,1,.07,1.37c0,.54,0,1,.05,1.39a6.43,6.43,0,0,0,.15,1,5.81,5.81,0,0,0,.22.8h4.28v-.42a1,1,0,0,1-.48-.28,1.14,1.14,0,0,1-.25-.53,7.72,7.72,0,0,1-.09-.9c0-.38,0-.86,0-1.43a9,9,0,0,0-.1-1.49,3.55,3.55,0,0,0-.29-1,2.28,2.28,0,0,0-.47-.68,2.57,2.57,0,0,0-.66-.45,6.46,6.46,0,0,0-.83-.36,4,4,0,0,0,1.56-.82,3.53,3.53,0,0,0,1-1.3,4.07,4.07,0,0,0,.34-1.63,4.16,4.16,0,0,0-.09-.8,4.23,4.23,0,0,0-2-2.8,5.58,5.58,0,0,0-1.56-.62,9,9,0,0,0-2.14-.24h-9.36v15.77Zm3.79-8.83V95.21h4.82a4.11,4.11,0,0,1,1.38.2,2.1,2.1,0,0,1,.83.51,2,2,0,0,1,.4.68,2.32,2.32,0,0,1,.1.67,2.15,2.15,0,0,1-.33,1.25,1.82,1.82,0,0,1-1,.69,5.62,5.62,0,0,1-1.67.21Z"/><polygon points="486.14 102.34 492.33 92.48 487.95 92.48 484.29 99.33 480.44 92.48 475.88 92.48 482.28 102.3 482.28 108.25 486.14 108.25 486.14 102.34 486.14 102.34"/></g></g></svg>